<mxfile host="app.diagrams.net" modified="2024-03-13T09:36:21.403Z" agent="Mozilla/5.0 (Macintosh; Intel Mac OS X 10_15_7) AppleWebKit/537.36 (KHTML, like Gecko) Chrome/118.0.0.0 Safari/537.36" version="24.0.2" etag="L21EMjw7OCkJGqZNZyGW" type="github">
  <diagram name="第 1 页" id="d1vJS88AlJTQ6F2CTf-D">
    <mxGraphModel>
      <root>
        <mxCell id="0" />
        <mxCell id="1" parent="0" />
      </root>
    </mxGraphModel>
  </diagram>
</mxfile>
